<?xml version="1.0" standalone="no"?>
<!DOCTYPE svg PUBLIC "-//W3C//DTD SVG 20010904//EN"
 "http://www.w3.org/TR/2001/REC-SVG-20010904/DTD/svg10.dtd">
<svg version="1.0" xmlns="http://www.w3.org/2000/svg"
 width="642.000000pt" height="622.000000pt" viewBox="0 0 642.000000 622.000000"
 preserveAspectRatio="xMidYMid meet">

<g transform="translate(0.000000,622.000000) scale(0.100000,-0.100000)"
fill="#000000" stroke="none">
<path d="M6406 6205 c4 -8 8 -15 10 -15 2 0 4 7 4 15 0 8 -4 15 -10 15 -5 0
-7 -7 -4 -15z"/>
<path d="M1338 4738 l-3 -73 -72 -3 -73 -3 0 -59 0 -60 -70 0 -70 0 0 -75 0
-75 -40 0 -40 0 0 -70 0 -70 -55 0 -55 0 0 -140 0 -140 -50 0 -49 0 -3 -255
c-2 -140 -1 -260 0 -265 2 -6 17 -10 33 -10 l29 0 0 -330 0 -330 -50 0 -50 0
0 330 0 330 -50 0 -50 0 0 -330 0 -330 -45 0 -45 0 0 -510 0 -510 45 0 45 0 0
-85 0 -85 50 0 50 0 0 -50 0 -50 50 0 50 0 0 -50 0 -50 75 0 75 0 0 -45 0 -45
208 2 207 3 -3 42 -3 42 58 3 58 3 3 48 3 47 50 0 49 0 0 50 0 50 50 0 50 0 0
85 0 85 35 0 35 0 0 75 0 75 40 0 40 0 0 70 0 70 35 0 35 0 0 75 0 75 35 0
c33 0 35 2 35 35 0 34 1 35 40 35 39 0 40 -1 40 -34 0 -40 11 -46 86 -46 l54
0 0 -40 0 -40 210 0 210 0 0 40 0 40 65 0 65 0 0 40 0 40 60 0 60 0 0 75 0 75
285 0 285 0 0 -75 0 -75 59 0 60 0 3 -37 3 -38 60 -5 60 -5 3 -37 3 -38 210 0
209 0 0 43 0 42 67 0 68 0 3 38 c3 36 4 37 43 37 38 0 39 -1 39 -35 0 -33 2
-35 35 -35 l35 0 0 -75 0 -75 35 0 35 0 0 -70 0 -70 40 0 40 0 0 -75 0 -75 35
0 35 0 0 -85 0 -85 50 0 50 0 0 -50 0 -50 55 0 55 0 0 -50 0 -50 55 0 55 0 0
-45 0 -45 205 0 205 0 0 45 0 45 75 0 75 0 0 50 0 50 50 0 50 0 0 50 0 50 50
0 50 0 0 85 0 85 45 0 45 0 0 510 0 510 -45 0 -45 0 0 330 0 330 -50 0 -50 0
0 -330 0 -330 -50 0 -50 0 0 330 0 330 30 0 30 0 0 265 0 265 -50 0 -50 0 0
140 0 140 -55 0 -55 0 0 70 0 70 -40 0 -40 0 0 75 0 75 -70 0 -70 0 0 60 0 59
-72 3 -73 3 0 70 0 70 -365 0 -365 0 -3 -72 -3 -73 -79 0 -80 0 0 -60 0 -60
-70 0 -70 0 0 -35 0 -35 -795 0 -795 0 0 35 0 35 -70 0 -70 0 0 60 0 60 -80 0
-79 0 -3 73 -3 72 -362 3 -362 2 -3 -72z m582 -43 l0 -35 70 0 70 0 0 -60 0
-60 85 0 85 0 0 -34 c0 -30 3 -35 28 -38 23 -3 27 -8 30 -40 l3 -38 875 0 874
0 0 35 c0 32 2 35 30 35 28 0 30 2 30 40 l0 40 85 0 85 0 0 60 0 60 70 0 70 0
0 35 0 35 205 0 205 0 0 -35 0 -35 85 0 85 0 0 -60 0 -60 75 0 75 0 0 -75 0
-75 70 0 70 0 0 -70 0 -70 40 0 40 0 0 -140 0 -140 55 0 55 0 0 -265 0 -265
-55 0 -55 0 0 264 0 265 -37 3 -38 3 -3 98 -3 97 -34 0 c-34 0 -35 1 -35 40 0
39 -1 40 -35 40 -33 0 -35 2 -35 34 0 32 -3 35 -32 38 -29 3 -33 7 -36 36 l-3
32 -58 0 c-98 0 -119 7 -123 44 l-3 31 -305 0 -304 0 -9 -37 c-8 -36 -11 -38
-48 -38 -38 0 -39 -1 -39 -35 l0 -35 -1015 0 -1015 0 0 35 c0 34 -1 35 -39 35
-39 0 -40 1 -43 38 l-3 37 -304 3 c-323 2 -321 3 -321 -44 0 -29 -17 -34 -105
-34 l-74 0 -3 -32 c-3 -29 -7 -33 -35 -36 -30 -3 -33 -6 -33 -38 0 -32 -2 -34
-34 -34 -33 0 -35 -2 -38 -37 -3 -35 -6 -38 -35 -41 l-33 -3 0 -94 c0 -100 -3
-105 -56 -105 l-24 0 0 -265 0 -265 -55 0 -55 0 0 265 0 265 55 0 55 0 0 140
0 140 40 0 40 0 0 70 0 70 70 0 70 0 0 75 0 75 75 0 75 0 0 60 0 60 85 0 85 0
0 35 0 35 205 0 205 0 0 -35z m2970 -455 c0 -33 -3 -40 -20 -40 -11 0 -20 -7
-20 -15 0 -8 -7 -15 -15 -15 -8 0 -15 -7 -15 -16 0 -9 -9 -18 -20 -21 -11 -3
-20 -11 -20 -18 0 -7 -9 -15 -20 -18 -11 -3 -20 -12 -20 -21 0 -9 -8 -16 -20
-16 -14 0 -20 -7 -20 -21 0 -14 -5 -19 -17 -17 -10 2 -17 10 -15 17 1 7 -7 15
-18 18 -23 6 -28 43 -5 43 8 0 15 7 15 15 0 8 9 15 20 15 13 0 20 7 20 20 0
13 7 20 20 20 13 0 20 7 20 20 0 11 7 20 15 20 8 0 15 6 15 14 0 7 9 16 20 19
11 3 20 12 20 21 0 12 10 16 40 16 l40 0 0 -40z m-2530 -30 c0 -28 -3 -30 -35
-30 -32 0 -35 2 -35 30 0 28 3 30 35 30 32 0 35 -2 35 -30z m1680 0 c0 -28 -3
-30 -35 -30 -32 0 -35 2 -35 30 0 28 3 30 35 30 32 0 35 -2 35 -30z m-1610
-146 l0 -105 -32 3 -33 3 -3 103 -3 102 36 0 35 0 0 -106z m1540 2 l0 -104
-35 -4 -35 -4 0 108 0 108 35 0 35 0 0 -104z m-2200 -67 c0 -71 -2 -80 -15
-69 -18 15 -20 67 -2 73 16 6 -112 20 -144 15 -22 -3 -24 -7 -27 -73 -2 -48
-8 -72 -18 -78 -10 -6 -12 -18 -8 -45 3 -20 1 -49 -5 -64 l-10 -27 -128 -3
-128 -3 -5 -70 -5 -70 -32 -3 -33 -3 0 95 0 96 150 0 150 0 0 155 0 155 130 0
130 0 0 -81z m1520 -4 c0 -32 -2 -35 -30 -35 -28 0 -30 -2 -30 -40 0 -39 -1
-40 -35 -40 -33 0 -35 -2 -35 -35 l0 -35 100 0 100 0 0 -35 c0 -33 -2 -35 -35
-35 -34 0 -35 -1 -35 -40 0 -38 -2 -40 -30 -40 -28 0 -30 -3 -30 -35 0 -32 -2
-35 -29 -35 -27 0 -30 -3 -33 -37 -2 -21 -9 -39 -15 -39 -7 -1 -22 -2 -33 -3
-12 -1 -17 -6 -14 -15 8 -22 -14 -56 -36 -56 -25 0 -25 -5 2 -32 l22 -22 -24
-6 c-24 -6 -25 -4 -28 53 -4 75 1 87 33 87 25 0 25 1 25 75 l0 75 -67 1 -68 1
55 8 c31 5 62 4 72 -1 9 -5 28 -9 42 -9 19 0 26 5 26 20 0 20 -9 23 -60 21
-23 -1 -23 0 -5 8 15 7 5 10 -39 10 -45 1 -62 -3 -72 -16 -11 -15 -13 -5 -14
75 l0 92 35 0 c34 0 35 1 35 40 0 38 2 40 30 40 28 0 30 3 30 35 l0 35 95 0
95 0 0 -35z m-790 -335 l0 -290 -35 0 -35 0 0 290 0 290 35 0 35 0 0 -290z
m1398 30 c3 -306 2 -320 -38 -320 -36 0 -36 -4 -32 328 l3 253 32 -3 32 -3 3
-255z m392 104 c0 -35 1 -35 33 -30 30 6 30 5 7 -5 -23 -9 -23 -11 -7 -20 9
-6 17 -17 17 -25 0 -12 10 -15 43 -12 42 3 42 3 45 -34 3 -36 -23 -78 -48 -78
-5 0 -10 -7 -10 -15 0 -11 -11 -15 -40 -15 l-40 0 0 50 c0 43 -3 50 -20 50
-11 0 -19 3 -19 8 6 35 -2 42 -46 42 -41 0 -45 2 -45 25 0 16 6 25 15 25 18 0
20 36 4 46 -7 4 -20 -4 -30 -17 l-19 -24 0 28 c0 23 4 27 30 27 17 0 30 -4 30
-10 0 -5 9 -10 20 -10 11 0 20 7 20 15 0 10 10 15 30 15 28 0 30 -3 30 -36z
m73 19 c-7 -2 -21 -2 -30 0 -10 3 -4 5 12 5 17 0 24 -2 18 -5z m919 -5 c2 -7
2 -66 0 -130 -3 -92 -7 -118 -18 -118 -8 0 -14 -9 -14 -21 0 -12 -8 -23 -20
-26 -11 -3 -20 -12 -20 -19 0 -8 -7 -14 -16 -14 -9 0 -18 -9 -21 -20 -4 -17
-14 -20 -54 -20 -42 0 -49 3 -49 20 0 13 -7 20 -20 20 -11 0 -20 7 -20 15 0 8
-7 15 -16 15 -9 0 -18 9 -21 20 -3 11 -12 20 -19 20 -11 0 -14 27 -14 135 l0
135 159 0 c118 0 160 -3 163 -12z m-3222 -133 l0 -95 -35 0 -35 0 0 59 c0 93
3 91 -116 91 -97 0 -104 1 -104 20 0 19 7 20 145 20 l145 0 0 -95z m2060 28
c0 -34 3 -41 15 -37 10 4 15 0 15 -15 0 -12 -6 -21 -15 -21 -8 0 -15 -4 -15
-10 0 -13 -37 -50 -49 -50 -5 0 -12 -6 -14 -12 -3 -7 -6 32 -6 88 l-1 101 35
-1 c34 -1 35 -2 35 -43z m308 40 c-10 -2 -26 -2 -35 0 -10 3 -2 5 17 5 19 0
27 -2 18 -5z m-1690 -91 c55 -2 46 -18 -14 -25 -28 -3 -51 -11 -56 -21 -16
-28 -38 -19 -38 17 0 35 -10 33 108 29z m962 -33 c0 -24 -4 -29 -25 -29 -15 0
-25 6 -25 14 0 9 -20 19 -50 26 -27 7 -50 15 -50 18 0 4 34 6 75 4 l75 -4 0
-29z m520 6 c0 -8 -9 -20 -20 -27 -11 -7 -20 -18 -20 -25 0 -7 -7 -13 -15 -13
-8 0 -15 -7 -15 -15 0 -9 -9 -15 -21 -15 -15 0 -19 -4 -15 -16 4 -11 1 -14
-11 -12 -9 2 -18 10 -20 18 -4 12 -3 13 5 1 8 -11 11 -9 17 8 3 11 11 21 16
21 5 0 9 7 9 15 0 8 7 15 15 15 8 0 15 7 15 15 0 8 7 15 15 15 9 0 18 7 21 15
8 19 24 19 24 0z m51 -75 c5 0 9 -5 9 -11 0 -5 -4 -7 -10 -4 -6 3 -7 -1 -4 -9
10 -26 93 -9 126 25 35 38 50 37 46 -3 -3 -30 -6 -33 -41 -36 -39 -3 -39 -4
-33 -38 l7 -34 -126 0 c-118 0 -125 1 -125 20 0 12 7 20 16 20 9 0 18 9 21 20
3 11 12 20 19 20 8 0 14 7 14 15 0 8 7 15 15 15 8 0 15 7 15 15 0 8 7 15 15
15 8 0 16 8 17 18 0 9 3 2 5 -15 2 -18 8 -33 14 -33z m-2754 -52 c-2 -13 -4
-5 -4 17 -1 22 1 32 4 23 2 -10 2 -28 0 -40z m2553 -18 c0 -11 -4 -20 -10 -20
-5 0 -10 9 -10 20 0 11 5 20 10 20 6 0 10 -9 10 -20z m-2553 -162 c-2 -24 -4
-7 -4 37 0 44 2 63 4 43 2 -21 2 -57 0 -80z m3223 73 c0 -10 9 -21 20 -24 11
-3 20 -12 20 -21 0 -9 -8 -16 -20 -16 -16 0 -20 -7 -20 -35 0 -28 4 -35 20
-35 11 0 20 -6 20 -14 0 -8 14 -17 30 -21 l30 -7 0 -79 c0 -64 -3 -79 -15 -79
-8 0 -15 -7 -15 -15 0 -8 -6 -15 -14 -15 -7 0 -16 -9 -19 -20 -5 -18 -14 -20
-91 -20 -79 0 -86 2 -86 20 0 13 -7 20 -20 20 -11 0 -20 7 -20 15 0 8 -7 15
-15 15 -12 0 -15 16 -15 86 0 72 2 85 15 80 8 -3 19 2 24 12 8 14 11 14 11 2
0 -12 3 -11 11 3 5 9 17 17 24 17 10 0 15 11 15 35 0 24 -5 35 -15 35 -8 0
-15 9 -15 20 0 11 7 20 15 20 8 0 15 9 15 20 0 18 7 20 55 20 47 0 55 -3 55
-19z m-210 -126 c0 -1 -7 -8 -15 -15 -13 -10 -15 -9 -15 8 0 15 5 20 15 16 8
-4 15 -7 15 -9z m-1960 -230 c0 -34 1 -35 40 -35 39 0 40 -1 40 -34 0 -33 2
-35 38 -38 l37 -3 3 -105 c2 -58 0 -137 -3 -177 l-7 -72 -36 -3 c-34 -3 -37
-6 -40 -35 -3 -27 -8 -33 -27 -33 -43 0 -55 -10 -55 -46 l0 -34 -155 0 -155 0
0 35 c0 35 0 35 -44 35 l-44 0 -7 73 -7 72 -36 0 -37 0 -3 148 -3 147 41 0
c39 0 40 1 40 34 0 34 1 35 48 38 40 3 47 6 45 23 -5 44 -1 45 167 45 l160 0
0 -35z m1520 0 c0 -35 0 -35 45 -35 45 0 45 0 45 -35 0 -34 1 -35 40 -35 l41
0 -3 -147 -3 -148 -37 -3 -36 -3 -7 -70 -7 -70 -34 7 c-44 8 -62 -7 -56 -46
l4 -30 -155 0 -156 0 -3 38 c-3 35 -5 37 -40 40 -33 3 -37 6 -40 35 -3 29 -7
32 -40 35 l-36 3 -7 72 c-3 40 -5 119 -3 177 l3 105 43 3 c41 3 42 4 42 38 0
32 2 34 35 34 33 0 35 2 35 35 l0 35 165 0 165 0 0 -35z m-3370 -765 l0 -510
50 0 50 0 0 -85 0 -84 73 -3 72 -3 3 -47 3 -48 204 0 204 0 3 48 3 47 53 3 52
3 0 43 c0 35 4 45 20 49 15 4 20 14 20 41 0 33 2 36 29 36 36 0 41 -13 41
-101 l0 -69 -55 0 -55 0 0 -50 0 -50 -55 0 -55 0 0 -50 0 -50 -205 0 -205 0 0
50 0 50 -75 0 -75 0 0 50 0 50 -50 0 -50 0 0 85 0 85 -50 0 -50 0 0 510 0 510
50 0 50 0 0 -510z m4990 0 l0 -510 -50 0 -50 0 0 -85 0 -85 -50 0 -50 0 0 -50
0 -50 -75 0 -75 0 0 -50 0 -50 -205 0 -205 0 0 50 0 50 -55 0 -55 0 0 50 0 50
-55 0 -55 0 0 33 c0 17 3 56 6 85 6 49 8 52 35 52 27 0 29 -3 29 -36 0 -27 5
-37 20 -41 16 -4 20 -14 20 -49 l0 -43 53 -3 52 -3 3 -47 3 -48 204 0 204 0 3
48 3 47 73 3 72 3 0 84 0 85 50 0 50 0 0 510 0 510 50 0 50 0 0 -510z m-2330
255 l0 -35 -215 0 -215 0 0 35 0 35 215 0 215 0 0 -35z m-1386 -122 c4 -9 4
-43 0 -75 -7 -58 -7 -58 -40 -58 -32 0 -34 -2 -34 -35 0 -33 -2 -35 -35 -35
-33 0 -35 2 -35 35 0 33 2 35 35 35 l35 0 0 68 c0 38 3 72 7 75 13 14 61 7 67
-10z m2416 -58 l0 -75 35 0 c33 0 35 -2 35 -35 0 -33 -2 -35 -35 -35 -33 0
-35 2 -35 35 0 33 -2 35 -34 35 -32 0 -34 2 -38 41 -2 23 -2 56 0 75 4 31 7
34 38 34 l34 0 0 -75z m-2562 -222 l3 -73 -41 0 -40 0 0 -70 0 -70 -35 0 -35
0 0 -75 0 -75 -35 0 -35 0 0 75 0 75 35 0 35 0 0 70 0 70 35 0 35 0 0 68 c0
38 3 72 7 76 4 4 21 6 38 4 l30 -3 3 -72z m2710 0 l3 -73 34 0 35 0 0 -70 0
-70 35 0 35 0 0 -75 0 -75 -35 0 -35 0 0 75 0 75 -35 0 -35 0 0 70 0 70 -40 0
-40 0 0 63 c0 70 12 89 50 85 24 -3 25 -6 28 -75z"/>
</g>
</svg>
